<svg xmlns="http://www.w3.org/2000/svg" width="209.8489540587285" height="219.53749999999997" viewBox="0 0 350 366.15919933771033" class="css-1j8o68f">
      <defs id="SvgjsDefs2974"></defs>
      <g id="SvgjsG2975" featurekey="rootContainer" transform="matrix(Infinity,0,0,Infinity,0,0)" fill="#ffffff"></g>
      <g id="SvgjsG2976" featurekey="symbolGroupContainer" transform="matrix(1,0,0,1,74,0)" fill="#ffffff">
        <path xmlns="http://www.w3.org/2000/svg" fill-rule="evenodd"
          d=" M0,0 H203 V216 H0,0 z M2,2 H201 V214 H2,2 z M6,6 H197 V210 H6 z M8,8 H195 V208 H6,8 z "></path>
      </g>
      <g id="SvgjsG2977" featurekey="symbolFeature-0"
        transform="matrix(2.082868343515933,0,0,2.082868343515933,129,54.937484710209716)" fill="#000000">
        <title xmlns="http://www.w3.org/2000/svg">Asset 42LETTERS3</title>
        <g xmlns="http://www.w3.org/2000/svg" id="Page-1" stroke="none" stroke-width="1" fill="none"
          fill-rule="evenodd">
          <g id="Artboard" transform="translate(-535.000000, -160.000000)">
            <g id="Asset-42LETTERS3" transform="translate(535.000000, 160.030000)">
              <path
                d="M16.4,24.01 L16.4,35.47 L11.54,36.11 L11.54,24.29 L0.63,27.13 L0.63,41.77 C0.63,45.08 3.05,48.03 6.34,48.36 C6.55,48.38 6.76,48.39 6.96,48.39 L20.76,48.39 C25.95,48.39 30.15,44.18 30.15,39 L30.15,2.11 L16.4,8.45 L16.4,24.01 Z"
                id="Path"></path>
              <path
                d="M30.61,0 L15.28,7.05 L15.28,23.58 L12.37,22.46 L0,25.67 L0,43.01 C0,47.39 3.55,50.94 7.93,50.94 L35.13,50.94 C40.47,50.94 44.81,46.61 44.81,41.26 L44.81,9.71 L30.61,0 Z M30.15,38.99 C30.15,44.18 25.94,48.38 20.76,48.38 L6.96,48.38 C6.75,48.38 6.54,48.37 6.34,48.35 C3.05,48.02 0.63,45.07 0.63,41.76 L0.63,27.12 L11.55,24.28 L11.55,36.1 L16.41,35.46 L16.41,8.45 L30.15,2.11 L30.15,38.99 Z"
                id="Shape" fill="#000000" fill-rule="nonzero"></path>
            </g>
          </g>
        </g>
      </g>
      <g id="SvgjsG2978" featurekey="usJxlK-0"
        transform="matrix(3.552737024415464,0,0,3.552737024415464,-0.3468182251865537,218.51367763909707)"
        fill="#ffffff">
        <path
          d="M0.80078 5.195 l5.5957 0 l0 2.9688 l-1.0352 0 l0 10.156 q-0.21484375 0.791015625 -0.625 1.450195313 t-0.80566 1.1963 t-1.1084 1.3574 l-2.7246 -0.14648 q0.576171875 -0.87890625 0.9033203125 -1.450195313 t0.65918 -1.2598 t0.51758 -1.4697 l0 -9.834 l-1.377 0 l0 -2.9688 z M14.50191875 20.26367 q-1.005859375 0 -1.923828125 -0.2734375 t-1.7139 -0.77148 t-1.4453 -1.1963 t-1.1084 -1.5527 t-0.71289 -1.8311 t-0.25391 -2.041 t0.25391 -2.0459 t0.71289 -1.8359 t1.1084 -1.5527 t1.4453 -1.1963 t1.7139 -0.77148 t1.9238 -0.27344 t1.9287 0.27344 t1.7188 0.77148 t1.4453 1.1963 t1.1133 1.5527 t0.71777 1.8359 t0.25391 2.0459 q0 1.0546875 -0.25390625 2.036132813 t-0.71777 1.8359 t-1.1133 1.5527 t-1.4453 1.1963 t-1.7188 0.77148 t-1.9287 0.27344 z M14.50191875 17.1973 q0.849609375 0 1.557617188 -0.3662109375 t1.2158 -0.99609 t0.78613 -1.4648 t0.27832 -1.7725 q0 -0.947265625 -0.283203125 -1.787109375 t-0.7959 -1.4697 t-1.2158 -0.99609 t-1.543 -0.36621 t-1.543 0.36621 t-1.2109 0.99609 t-0.7959 1.4697 t-0.28809 1.7871 q0 0.9375 0.2880859375 1.772460938 t0.7959 1.4648 t1.2109 0.99609 t1.543 0.36621 z M32.97853125 5.195 l5.625 0 l0 2.6855 l-1.2012 0 l0 12.119 l-3.2422 0 l-6.1621 -9.5703 l0 6.8945 l1.2402 0 l0 2.6758 l-5.6152 0 l0 -2.6758 l1.2207 0 l0 -9.4434 l-1.2012 0 l0 -2.6855 l4.4727 0 l6.123 9.6973 l0 -7.0117 l-1.2598 0 l0 -2.6855 z M39.6972625 15.6152 l0 -2.6758 l6.123 0 l0 2.6758 l-6.123 0 z M47.72459375 5.195 l11.777 0 l0 5.0488 l-3.1836 0 l0 -2.0996 l-3.7988 0 l0 2.9199 l2.9395 0 l0 2.832 l-2.9395 0 l0 3.4277 l3.7988 0 l0 -2.627 l3.1836 0 l0 5.3027 l-11.777 0 l0 -2.6758 l1.5527 0 l0 -9.1797 l-1.5527 0 l0 -2.9492 z M61.20115625 5.195 l7.832 0 q1.142578125 0 2.041015625 0.341796875 t1.5137 0.91309 t0.94238 1.3281 t0.32715 1.5771 q0 0.751953125 -0.1611328125 1.318359375 t-0.46875 1.0059 t-0.75684 0.77637 t-1.0254 0.61035 q0.498046875 0.25390625 0.87890625 0.7763671875 t0.57617 1.3525 l0.49805 1.9238 l1.2207 0 l0.019531 2.8809 l-4.2969 0 l-0.58594 -3.5156 q-0.087890625 -0.625 -0.2685546875 -1.079101563 t-0.4834 -0.74219 t-0.7373 -0.4248 t-1.0303 -0.13672 l-1.2598 0 l0 3.2227 l1.3574 0 l0 2.6758 l-6.1328 0 l0 -2.6758 l1.5332 0 l0 -9.4434 l-1.5332 0 l0 -2.6855 z M65.97655625 7.881 l0 3.584 l1.9434 0 q0.556640625 0 1.000976563 -0.1025390625 t0.76172 -0.32227 t0.48828 -0.55176 t0.1709 -0.79102 q0 -0.859375 -0.615234375 -1.337890625 t-1.8066 -0.47852 l-1.9434 0 z M76.1425625 5.195 l6.3379 0 l0 2.6758 l-1.5625 0 l0 9.4531 l1.5625 0 l0 2.6758 l-6.3379 0 l0 -2.6758 l1.5332 0 l0 -9.4531 l-1.5332 0 l0 -2.6758 z M84.05271875 5.195 l6.3379 0 l0 2.6855 l-1.5625 0 l0 4.3066 l4.7363 -4.1309 l0 -2.8613 l5.0488 0 l0 2.8809 l-1.1035 0 l-4.9316 4.2383 l4.7266 4.7852 l1.2012 0 l0 2.9004 l-4.9121 0 l0 -2.9004 l-4.7656 -4.7656 l0 4.9902 l1.5625 0 l0 2.6758 l-6.3379 0 l0 -2.6758 l1.5332 0 l0 -9.4434 l-1.5332 0 l0 -2.6855 z">
        </path>
      </g>
      <g id="SvgjsG2979" featurekey="usJxlK-1"
        transform="matrix(3.940189430598515,0,0,3.940189430598515,-4.347999070484378,287.53150433972934)"
        fill="#ffffff">
        <path
          d="M1.1035 5.195 l11.777 0 l0 5.0488 l-3.1836 0 l0 -2.0996 l-3.7988 0 l0 2.9199 l2.9395 0 l0 2.832 l-2.9395 0 l0 3.4277 l3.7988 0 l0 -2.627 l3.1836 0 l0 5.3027 l-11.777 0 l0 -2.6758 l1.5527 0 l0 -9.1797 l-1.5527 0 l0 -2.9492 z M14.5800625 5.195 l6.3379 0 l0 2.6855 l-1.5625 0 l0 4.3066 l4.7363 -4.1309 l0 -2.8613 l5.0488 0 l0 2.8809 l-1.1035 0 l-4.9316 4.2383 l4.7266 4.7852 l1.2012 0 l0 2.9004 l-4.9121 0 l0 -2.9004 l-4.7656 -4.7656 l0 4.9902 l1.5625 0 l0 2.6758 l-6.3379 0 l0 -2.6758 l1.5332 0 l0 -9.4434 l-1.5332 0 l0 -2.6855 z M30.439451875 5.195 l5.6836 0 q1.015625 0 1.948242188 0.263671875 t1.7383 0.74219 t1.4648 1.1475 t1.1279 1.4893 t0.72266 1.7676 t0.25391 1.9727 t-0.25391 1.9727 t-0.72266 1.7725 t-1.1279 1.5039 t-1.4648 1.1621 t-1.7383 0.74707 t-1.9482 0.26367 l-5.6836 0 l0 -2.6758 l1.1816 0 l0 -9.4434 l-1.1816 0 l0 -2.6855 z M34.863271875 7.881 l0 9.4434 l1.2402 0 q0.791015625 0 1.494140625 -0.37109375 t1.2207 -1.0107 t0.82031 -1.5039 t0.30273 -1.8604 q0 -0.986328125 -0.302734375 -1.845703125 t-0.82031 -1.4941 t-1.2207 -0.99609 t-1.4941 -0.36133 l-1.2402 0 z M52.695309375 17.3242 l1.4746 0 l-0.66406 -2.1289 l-4.5508 0 l-0.66406 2.1289 l1.5625 0 l0 2.6758 l-5.6152 0 l0 -2.6758 l1.1035 0 l4.0332 -12.129 l3.916 0 l3.9453 12.129 l1.0742 0 l0 2.6758 l-5.6152 0 l0 -2.6758 z M49.726609375 12.6953 l2.9883 0 l-1.5039 -4.8145 z M69.55115625 5.195 l6.3477 0 l0 2.6855 l-1.5625 0 l0 9.4434 l1.5625 0 l0 2.6758 l-6.3477 0 l0 -2.6758 l1.543 0 l0 -3.7891 l-6.6797 0 l0 3.7891 l1.5625 0 l0 2.6758 l-6.3379 0 l0 -2.6758 l1.5332 0 l0 -9.4434 l-1.5332 0 l0 -2.6855 l6.3379 0 l0 2.6855 l-1.5625 0 l0 3.0762 l6.6797 0 l0 -3.0762 l-1.543 0 l0 -2.6855 z M78.0956875 5.195 l6.3379 0 l0 2.6855 l-1.5625 0 l0 9.4434 l3.2227 0 q0.126953125 0 0.2490234375 -0.0732421875 t0.21484 -0.19043 t0.15137 -0.25391 t0.058594 -0.26367 l0 -1.9824 l3.1641 0 l0 5.4395 l-11.836 0 l0 -2.6758 l1.5332 0 l0 -9.4434 l-1.5332 0 l0 -2.6855 z">
        </path>
      </g>
    </svg>